<svg xmlns="http://www.w3.org/2000/svg" viewBox="0 0 32 32" fill="currentColor">
  <path d="M16 7.3c2.8 0 3.1 0 4.2.1 1 .1 1.6.2 2 .4.5.2.8.4 1.2.8.4.4.6.7.8 1.2.2.4.3 1 .4 2 .1 1.1.1 1.4.1 4.2s0 3.1-.1 4.2c-.1 1-.2 1.6-.4 2-.2.5-.4.8-.8 1.2-.4.4-.7.6-1.2.8-.4.2-1 .3-2 .4-1.1.1-1.4.1-4.2.1s-3.1 0-4.2-.1c-1-.1-1.6-.2-2-.4-.5-.2-.8-.4-1.2-.8-.4-.4-.6-.7-.8-1.2-.2-.4-.3-1-.4-2-.1-1.1-.1-1.4-.1-4.2s0-3.1.1-4.2c.1-1 .2-1.6.4-2 .2-.5.4-.8.8-1.2.4-.4.7-.6 1.2-.8.4-.2 1-.3 2-.4 1.1-.1 1.4-.1 4.2-.1zm0-1.9c-2.9 0-3.3 0-4.4.1-1.1.1-1.9.3-2.6.6-.7.3-1.3.7-1.9 1.3-.6.6-1 1.2-1.3 1.9-.3.7-.5 1.5-.6 2.6-.1 1.1-.1 1.5-.1 4.4s0 3.3.1 4.4c.1 1.1.3 1.9.6 2.6.3.7.7 1.3 1.3 1.9.6.6 1.2 1 1.9 1.3.7.3 1.5.5 2.6.6 1.1.1 1.5.1 4.4.1s3.3 0 4.4-.1c1.1-.1 1.9-.3 2.6-.6.7-.3 1.3-.7 1.9-1.3.6-.6 1-1.2 1.3-1.9.3-.7.5-1.5.6-2.6.1-1.1.1-1.5.1-4.4s0-3.3-.1-4.4c-.1-1.1-.3-1.9-.6-2.6-.3-.7-.7-1.3-1.3-1.9-.6-.6-1.2-1-1.9-1.3-.7-.3-1.5-.5-2.6-.6-1.1-.1-1.5-.1-4.4-.1z"></path>
</svg>
